<?xml version="1.0" encoding="UTF-8"?>
<svg xmlns="http://www.w3.org/2000/svg" viewBox="0 0 750 500">
  <defs>
    <style>
      .cls-1 {
        fill: none;
        stroke: #1d1d1b;
        stroke-miterlimit: 10;
        stroke-width: 1.07px;
      }

      .cls-2 {
        fill: #fff;
      }

      .cls-3 {
        fill: #1d1d1b;
      }

      .cls-4 {
        fill: #1d1e1b;
      }
    </style>
  </defs>
  <g id="BACKGROUND">
    <rect class="cls-2" width="750" height="500"/>
  </g>
  <g id="OBJECTS">
    <g>
      <path class="cls-3" d="M59.74,303.31c6.18-4.34,12.48-8.49,18.82-12.58,6.34-4.08,12.73-8.08,19.15-12.02,3.2-1.99,6.45-3.9,9.67-5.86l4.84-2.91,4.88-2.85c1.62-.96,3.26-1.9,4.9-2.81.46-.23.62-.43,1.69-.83.26-.08.58-.16.95-.17.37-.02.78.04,1.1.15.66.21,1.02.5,1.27.67l2.26,1.73c2.97,2.32,5.94,4.64,8.88,7l-2.34.25c4.39-4.48,9.11-8.52,13.81-12.52,2.34-2.02,4.72-3.98,7.02-6.02,2.31-2.03,4.62-4.06,6.83-6.19l.5-.49.56.44c12.02,9.35,24.52,18.1,36.82,27.09,6.15,4.5,12.21,9.1,18.3,13.69l9.11,6.9c3.04,2.31,6.04,4.61,9.06,6.72,3.02,2.11,6.12,3.99,9.38,5.35,3.22,1.39,6.64,2.22,10.25,2.67,3.6.46,7.33.57,11.13.74l11.42.46c15.22.67,30.44,1.56,45.65,2.86v.53c-15.26.74-30.5,1.09-45.73,1.22l-11.43.05c-3.81.02-7.71,0-11.67-.42-3.94-.41-8.04-1.24-11.83-2.85-3.78-1.6-7.21-3.71-10.42-5.97-3.21-2.27-6.17-4.72-9.14-7.08l-8.91-7.15c-5.93-4.78-11.88-9.54-17.74-14.41-11.72-9.74-23.25-19.73-35.25-29.1l1.07-.05-6.82,6.26c-2.3,2.06-4.53,4.18-6.77,6.28-4.44,4.25-8.72,8.65-12.57,13.34l-.95,1.16-1.38-.91c-3.15-2.08-6.26-4.19-9.38-6.31l-2.3-1.6c-.13-.1-.17-.07.04,0,.09.03.27.06.4.06.13,0,.22-.03.26-.04.17-.08-.44.27-.8.5-1.6,1-3.21,1.97-4.83,2.92l-4.85,2.89-4.89,2.82c-3.27,1.87-6.51,3.78-9.8,5.61-6.56,3.7-13.15,7.34-19.79,10.9-6.64,3.56-13.33,7.04-20.12,10.35l-.27-.46Z"/>
      <path class="cls-3" d="M192.57,271.83c2.04-2.36,4.06-4.74,6.12-7.08l6.23-6.99,6.31-6.92,6.43-6.81c8.61-9.05,17.4-17.93,26.45-26.55l6.81-6.44,6.9-6.35,6.96-6.28,7.05-6.18,7.12-6.11,7.18-6.04,7.27-5.92,7.34-5.84,1.78-1.42,1.77,1.45,6.11,4.99,6.07,5.03-3.9.41c8.11-9.95,16.48-19.68,25.09-29.19,8.61-9.51,17.51-18.76,26.72-27.68l1.34-1.3,1.28,1.24c5.35,5.21,11.77,9.38,18.76,12.2,3.5,1.41,7.13,2.5,10.85,3.23,3.71.72,7.5,1.13,11.3,1.07h.61s.27.52.27.52l5.71,11.4,5.78,11.36,5.87,11.31,5.96,11.27-1.96.53c-.17-2.58-.4-5.16-.6-7.74l-.62-7.74-1.23-15.47-.32-4.05,3.21,2.62c5,4.08,9.61,8.66,13.78,13.61,4.11,4.99,7.83,10.28,11.16,15.75,1.68,2.73,3.29,5.48,4.88,8.24l4.66,8.29c3.1,5.51,6.31,10.9,9.78,16.09.88,1.3,1.73,2.64,2.56,3.44.43.41.82.69,1.29.88.48.2,1.07.33,1.75.4.67.08,1.44.1,2.24.14l2.38.11,4.75.24,9.5.51,4.75.26c1.57.08,3.21.16,4.92.45,1.69.29,3.5.88,5,1.98,1.49,1.08,2.59,2.42,3.56,3.73,1.88,2.61,3.65,5.2,5.49,7.81,3.64,5.2,7.23,10.43,10.79,15.68l-.43.32c-4.04-4.9-8.04-9.82-12-14.78l-5.92-7.41c-.97-1.19-1.98-2.25-3.12-2.98-1.11-.72-2.41-1.09-3.85-1.27-1.43-.18-2.97-.16-4.57-.19l-4.76-.07-9.51-.15-4.75-.09-2.38-.05c-.78-.02-1.6-.02-2.51-.1-.9-.08-1.88-.23-2.88-.62-1.02-.38-1.95-1.02-2.68-1.69-.73-.68-1.31-1.4-1.83-2.08-.51-.68-.95-1.32-1.43-1.98-3.74-5.25-7.01-10.77-10.21-16.26l-4.76-8.23c-1.56-2.74-3.14-5.47-4.77-8.15-3.28-5.35-6.66-10.6-10.51-15.48-3.78-4.93-8-9.53-12.64-13.69l2.89-1.43.5,15.51.25,7.76c.09,2.59.15,5.17.27,7.76l.23,4.94-2.18-4.41-5.66-11.42-5.76-11.37-5.85-11.32-5.92-11.29.88.52c-3.92.11-7.86-.1-11.74-.72-3.88-.61-7.72-1.6-11.43-2.93-7.42-2.67-14.39-6.72-20.34-12.03l2.62-.06c-8.76,9.28-17.35,18.7-25.75,28.29-8.4,9.59-16.55,19.4-24.44,29.4l-1.71,2.17-2.19-1.75-6.16-4.93-6.12-4.97,3.55.03-7.28,5.82-7.23,5.88-7.21,5.9-7.16,5.97-7.1,6.04-7.08,6.07-7.02,6.14-6.98,6.19c-9.26,8.31-18.44,16.71-27.46,25.29l-13.45,12.96-13.31,13.13-.39-.36Z"/>
      <polygon class="cls-3" points="304.55 170.01 318.17 223.79 315.91 222.81 353.95 202.85 355.08 202.26 355.54 203.42 377.43 258.72 353.44 204.3 355.03 204.86 317.4 225.58 315.66 226.54 315.13 224.6 300.42 171.1 304.55 170.01"/>
      <path class="cls-3" d="M367.25,122.77c1.5,5.04,3.2,10.08,5.06,15.03,1.88,4.93,3.9,9.83,6.39,14.42,1.26,2.27,2.63,4.51,4.31,6.31.84.89,1.75,1.58,2.81,2.02,1.05.43,2.18.56,3.33.43,2.31-.29,4.56-1.59,6.53-3.19,1.97-1.6,3.78-3.55,5.28-5.58l1-1.36.72,1.48,46.87,96.46-48.67-95.56,1.72.12c-1.62,2.28-3.43,4.3-5.56,6.1-2.12,1.76-4.6,3.36-7.6,3.81-1.49.2-3.08.05-4.51-.51-1.42-.55-2.68-1.49-3.69-2.52-2-2.07-3.46-4.4-4.82-6.75-2.68-4.73-4.82-9.67-6.83-14.64-1.98-4.99-3.78-10.02-5.42-15.15l3.06-.92Z"/>
      <polygon class="cls-3" points="513.02 224.96 476.95 239.88 476.27 240.17 475.75 239.68 463.13 227.7 464.5 227.53 424.01 288.05 462.99 226.54 463.55 225.65 464.35 226.37 477.27 238.04 476.07 237.83 511.76 222.02 513.02 224.96"/>
      <path class="cls-3" d="M628.37,248.37c-10.51,1.51-20.71,5.48-30.34,10.46-9.65,5-18.81,11.05-27.76,17.42-2.22,1.56-4.48,3.33-7.21,4.51-1.36.59-2.84.98-4.28,1.15-1.45.18-2.88.2-4.27.18l-16.53-.49c-5.5-.18-10.99-.37-16.4.49-2.69.43-5.36,1.14-7.83,2.3-2.47,1.17-4.72,2.84-6.46,4.98,1.65-2.21,3.85-4,6.3-5.28,2.46-1.29,5.15-2.11,7.86-2.67,5.45-1.1,11.04-1.13,16.54-1.18l16.51-.19c2.71-.06,5.32-.33,7.58-1.46,2.31-1.1,4.38-2.83,6.57-4.52,8.73-6.75,17.75-13.24,27.45-18.77,9.68-5.5,20.12-10.1,31.4-12.19l.86,5.26Z"/>
      <path class="cls-3" d="M137.46,276.57c-5.54,5.07-11.19,10.03-16.98,14.79l-17.42,14.2,16.35-15.4c5.42-5.15,10.67-10.46,15.8-15.88l2.24,2.28Z"/>
      <line class="cls-1" x1="133.24" y1="277.84" x2="120.4" y2="269.15"/>
      <line class="cls-1" x1="130.22" y1="281.05" x2="116.06" y2="271.8"/>
      <line class="cls-1" x1="126.63" y1="284.45" x2="111.72" y2="274.82"/>
      <line class="cls-1" x1="120.97" y1="289.35" x2="104.55" y2="278.4"/>
      <line class="cls-1" x1="115.87" y1="294.64" x2="98.32" y2="282.56"/>
      <line class="cls-1" x1="108.51" y1="300.49" x2="90.01" y2="287.28"/>
      <line class="cls-1" x1="500.67" y1="222.18" x2="506.36" y2="226.14"/>
      <line class="cls-1" x1="495.35" y1="222.8" x2="501.04" y2="227.75"/>
      <line class="cls-1" x1="488.79" y1="222.31" x2="495.97" y2="230.22"/>
      <line class="cls-1" x1="481.49" y1="221.81" x2="489.53" y2="232.7"/>
      <g>
        <polygon class="cls-3" points="619.92 247.41 643.18 262 619.11 248.79 619.92 247.41"/>
        <polygon class="cls-3" points="612.97 249.23 658.73 276.73 612.16 250.61 612.97 249.23"/>
        <polygon class="cls-3" points="604.03 253.2 640.86 275.74 603.22 254.58 604.03 253.2"/>
        <polygon class="cls-3" points="596.07 257.5 623.98 273.75 595.3 258.9 596.07 257.5"/>
        <polygon class="cls-3" points="589.12 261.3 605.78 271.44 588.35 262.7 589.12 261.3"/>
        <polygon class="cls-3" points="581.51 265.94 592.38 272.92 580.73 267.33 581.51 265.94"/>
      </g>
      <g>
        <polygon class="cls-3" points="198.15 274.98 240.51 236.02 199.62 276.52 198.15 274.98"/>
        <polygon class="cls-3" points="202.3 277.62 238.7 245.18 203.76 279.18 202.3 277.62"/>
        <polygon class="cls-3" points="207.2 281.64 237.81 254.1 208.67 283.19 207.2 281.64"/>
        <polygon class="cls-3" points="214.79 286.1 249.41 254.99 216.25 287.65 214.79 286.1"/>
        <polygon class="cls-3" points="219.24 290.11 243.16 269.04 220.71 291.66 219.24 290.11"/>
        <polygon class="cls-3" points="224.36 294.58 249.41 271.94 225.84 296.11 224.36 294.58"/>
        <polygon class="cls-3" points="228.39 298.91 247.4 282.42 229.85 300.46 228.39 298.91"/>
        <polygon class="cls-3" points="234.41 302.15 246.06 292.67 235.87 303.7 234.41 302.15"/>
      </g>
      <path class="cls-3" d="M541.89,230.15l14.04,13.02,3.51,3.25.88.81c.3.27.43.37.62.34.22-.02.61-.24.96-.41l1.07-.53,8.59-4.21-8.21,4.92-1.03.61c-.35.19-.63.44-1.2.6-.28.07-.65.03-.9-.09-.26-.12-.45-.27-.62-.4l-.94-.74-3.77-2.95-15.08-11.8,2.08-2.44Z"/>
      <path class="cls-3" d="M217.57,245.52c-5.54-4.74-11.07-9.49-16.61-14.23-.41-.35-.85-.71-1.39-.74-.68-.03-1.24.5-1.71.99-7.96,8.44-14.43,18.55-24.14,24.9,6.36,4.8,12.31,11.32,19.05,15.57l24.8-26.5Z"/>
      <path class="cls-4" d="M150.01,261.33c-2.02-1.34-3.96-2.83-5.78-4.43-4.38,4.27-9.09,8.21-14.08,11.76,2.66,1.09,5.2,2.46,7.58,4.07"/>
      <path class="cls-3" d="M434.08,322.45c4.82-5.05,9.95-9.79,15.08-14.49,5.15-4.69,10.35-9.32,15.58-13.92l15.64-13.78c2.6-2.3,5.16-4.63,7.68-6.98,2.5-2.3,4.94-4.85,7.73-7.19,2.77-2.34,5.96-4.5,9.72-5.69,1.86-.61,3.89-.91,5.75-.93,1.87-.05,3.65.06,5.36.12,3.4.18,6.62.16,8.95-1.33,2.36-1.4,3.63-4.7,5.18-7.84,1.49-3.15,3.01-6.28,4.45-9.45l2.17-4.74,1.05-2.39c.35-.8.72-1.66,1.31-2.46.58-.82,1.48-1.49,2.42-1.83.94-.35,1.89-.47,2.8-.54,1.83-.08,3.49-.05,5.23-.16,3.44-.16,6.87-.61,10.25-1.21,3.38-.64,6.72-1.48,9.98-2.52,3.29-1.05,6.4-2.29,9.62-3.7,1.63-.68,3.36-1.35,5.27-1.76,1.88-.42,4.04-.49,6.06.02,2.01.5,3.77,1.38,5.35,2.33,1.59.96,2.99,1.9,4.47,2.84,11.66,7.58,23.37,15.1,34.89,22.88,5.8,3.83,11.48,7.86,17.22,11.78,5.71,3.96,11.34,8.07,17.14,11.91,11.53,7.78,22.95,15.73,34.2,23.97l-.29.45c-12.26-6.66-24.34-13.61-36.31-20.73l-4.49-2.67c-1.49-.9-2.94-1.87-4.41-2.8l-8.78-5.65c-5.8-3.84-11.67-7.58-17.42-11.52-11.56-7.76-22.95-15.77-34.37-23.72-2.9-1.98-5.58-4.17-8.29-5.01-2.64-.87-5.78-.16-9,.94-3.25,1.14-6.71,2.22-10.12,3.04-3.44.81-6.9,1.48-10.39,1.93-3.49.47-6.99.76-10.5.88-1.74.08-3.56.03-5.21.09-1.66.05-3.16.51-3.97,1.73-.43.61-.76,1.36-1.09,2.16l-1.01,2.41-1.94,4.85c-1.31,3.22-2.53,6.49-3.78,9.73-.63,1.63-1.18,3.24-1.96,4.96-.77,1.68-1.92,3.48-3.61,4.76-1.67,1.31-3.69,2.01-5.6,2.35-1.92.34-3.77.41-5.54.44-1.77.01-3.47-.01-5.08.1-1.62.12-3.06.35-4.51.83-2.89.96-5.59,2.74-8.18,4.8-2.58,2.08-5.03,4.5-7.67,6.89-2.63,2.32-5.29,4.6-7.96,6.84-5.33,4.5-10.75,8.88-16.17,13.24-5.42,4.37-10.88,8.68-16.32,13.01-5.44,4.34-10.9,8.64-16.21,13.13l-.37-.39Z"/>
      <path class="cls-3" d="M512.23,223.72c7.86-5.05,15.73-10.1,23.59-15.15,4.67,5.78,9.58,11.37,14.71,16.75,4.3-3.54,9-6.59,13.98-9.08,2.32,3.29,4.65,6.58,6.97,9.86-9.15,2.13-18.15,2.77-27.3,3.73-1.2.13-2.08.51-3.05,1.23-.77.57-1.29,1.05-1.75,1.9-2.73,5.03-4.24,10.01-7.17,15.09l-19.98-24.33Z"/>
      <path class="cls-4" d="M248.31,312.99c3.32-6.07,6.5-14.75,9.82-20.82,2.32,6.55,4.64,13.1,6.96,19.65,1.21-8.75,3.47-17.35,6.73-25.55,2.02,8.96,4.04,17.92,6.06,26.88,2.94-6.51,5.87-13.01,8.81-19.52,1.49,6.83,2.98,13.66,4.47,20.5,1.67-4.79,3.33-9.59,5-14.38,1.55,4.61,3.1,9.22,4.65,13.83,3.05-7.45,6.1-14.9,9.15-22.35,2.3,7.47,3.92,15.15,4.84,22.92,1.55-5.68,3.63-11.21,6.23-16.49,2.18,5.85,4.58,12.14,6.76,17.99l-79.48-2.64Z"/>
      <g>
        <path class="cls-4" d="M55.85,311.77c-.18,10.11.2,20.2,1.11,30.21h25.93c.34-7.07.95-14.11,1.84-21.09.24,7.07.77,14.11,1.56,21.09h21.57l2.28-21.6,1.08,21.6h19.44c1.56-8.98,2.75-18.05,3.54-27.18.35,9.03.3,18.1-.11,27.18h22.98c.68-8.03,1.61-16.03,2.8-23.96-.03,8.01.21,16,.69,23.96h17.37l1.67-19.23,1.77,19.23h18.07l2.97-24.13.64,24.13h11.86c-3.74-12.44-7.49-24.87-11.23-37.31-4.27,10.69-8.9,21.23-13.88,31.61-3.46-7.69-6.48-15.58-9.03-23.62-3.54,7.81-6.39,15.94-8.48,24.25-4.05-11.63-7.39-23.5-10-35.53-5.2,10.8-10.4,21.61-15.6,32.41-3.72-11.82-7.44-23.63-11.17-35.45-5.16,12.4-10.31,24.8-15.47,37.2-2.44-10.49-4.89-20.99-7.33-31.48-5.59,10.09-11.19,20.19-16.78,30.28-3.23-9.76-6.46-19.53-9.69-29.29-4.27,10.03-7.61,20.45-9.98,31.09-6.39-13.94-12.78-27.89-19.16-41.83-8.6,14.85-17.19,32.81-25.79,47.66h22.13c.26-10.13,1.05-20.22,2.39-30.21Z"/>
        <g>
          <path class="cls-2" d="M42.09,333.62c.97-.03,1.8.24,2.6.58.79.37,1.55.81,2.17,1.55-.97.03-1.8-.24-2.6-.58-.79-.37-1.54-.81-2.17-1.55Z"/>
          <path class="cls-2" d="M44.72,325.91c.96.11,1.75.49,2.5.94.73.48,1.42,1.02,1.94,1.84-.96-.11-1.75-.49-2.5-.94-.73-.48-1.42-1.02-1.94-1.84Z"/>
          <path class="cls-2" d="M48.11,318.66c.82.07,1.44.41,2.02.81.56.43,1.08.91,1.4,1.67-.82-.07-1.44-.41-2.02-.81-.56-.43-1.08-.92-1.4-1.67Z"/>
          <path class="cls-2" d="M51.13,310.77c.61.04.98.29,1.3.61.29.33.52.72.52,1.33-.61-.03-.98-.29-1.3-.61-.29-.34-.52-.72-.52-1.33Z"/>
          <path class="cls-2" d="M56.28,301.84c.41.95.49,1.87.5,2.8-.03.92-.13,1.84-.57,2.79-.41-.92-.5-1.86-.5-2.8.03-.94.13-1.88.57-2.79Z"/>
          <path class="cls-2" d="M61.18,311.9c.1.56-.07.93-.29,1.24-.25.3-.56.54-1.13.59-.1-.56.06-.93.29-1.24.25-.29.56-.54,1.13-.59Z"/>
          <path class="cls-2" d="M58.74,321.12c.69-.61,1.41-.93,2.16-1.22.76-.26,1.52-.47,2.44-.43-.56.73-1.3,1.14-2.08,1.44-.79.26-1.62.42-2.52.21Z"/>
          <path class="cls-2" d="M59.23,329.21c.7-.71,1.55-1.12,2.42-1.47.88-.31,1.79-.55,2.79-.47-.74.73-1.56,1.13-2.42,1.47-.87.3-1.76.53-2.79.47Z"/>
          <path class="cls-2" d="M61.67,336.63c.73-.65,1.5-1.02,2.3-1.35.81-.3,1.63-.57,2.61-.59-.6.78-1.39,1.24-2.21,1.58-.84.31-1.73.52-2.7.36Z"/>
          <path class="cls-2" d="M78.41,336.49c.59-.06.98.14,1.31.39.31.28.58.62.63,1.21-.59.06-.98-.14-1.31-.39-.31-.28-.58-.62-.63-1.21Z"/>
          <path class="cls-2" d="M79.95,328.65c.6,0,.97.24,1.29.53.3.31.54.68.55,1.29-.6,0-.98-.24-1.29-.53-.29-.32-.53-.68-.55-1.29Z"/>
          <path class="cls-2" d="M85.44,314.43c.42.59.52,1.18.53,1.78-.02.59-.11,1.18-.53,1.78-.42-.59-.52-1.18-.53-1.78.02-.59.11-1.18.53-1.78Z"/>
          <path class="cls-2" d="M89.99,324.98c-.02.76-.24,1.31-.5,1.86-.29.54-.61,1.04-1.22,1.5-.19-.74-.02-1.39.27-1.98.31-.57.74-1.1,1.45-1.38Z"/>
          <path class="cls-2" d="M92.11,334.72c.06.65-.14,1.11-.41,1.53-.29.4-.65.76-1.28.93-.07-.65.14-1.11.41-1.53.3-.4.66-.76,1.28-.93Z"/>
          <path class="cls-2" d="M99.76,336.04c.82.02,1.46.31,2.06.67.58.39,1.12.84,1.49,1.57-.82-.02-1.46-.31-2.06-.67-.58-.39-1.12-.84-1.49-1.57Z"/>
          <path class="cls-2" d="M102.82,329.23c.72.06,1.23.36,1.7.72.44.39.83.84,1.01,1.54-.72-.05-1.24-.36-1.7-.72-.44-.39-.83-.84-1.01-1.54Z"/>
          <path class="cls-2" d="M106.15,321.63c.58-.04.95.16,1.27.42.29.28.53.63.55,1.21-.59.04-.95-.16-1.27-.42-.29-.29-.53-.63-.55-1.21Z"/>
          <path class="cls-2" d="M111.21,312.5c.42.56.51,1.15.52,1.73-.02.58-.12,1.17-.55,1.72-.42-.6-.51-1.16-.52-1.73.02-.57.12-1.13.55-1.72Z"/>
          <path class="cls-2" d="M114.56,322.55c.19.48.05.8-.16,1.04-.23.22-.55.37-1.04.19-.01-.51.1-.74.27-.94.19-.17.42-.3.93-.3Z"/>
          <path class="cls-2" d="M116,329.06c-.28.64-.66,1-1.07,1.33-.43.31-.88.58-1.57.69.08-.7.47-1.17.92-1.53.47-.34,1.03-.59,1.72-.49Z"/>
          <path class="cls-2" d="M117.22,335.86c-.39.73-.95,1.19-1.54,1.58-.62.36-1.27.66-2.1.67.39-.73.94-1.19,1.54-1.58.62-.36,1.27-.65,2.1-.67Z"/>
          <path class="cls-2" d="M124.62,335.55c.65-.02,1.09.21,1.49.5.38.32.71.7.83,1.34-.65.02-1.1-.21-1.49-.5-.38-.32-.7-.7-.83-1.34Z"/>
          <path class="cls-2" d="M126.63,328.28c.72-.04,1.27.19,1.77.49.49.33.93.72,1.2,1.39-.72.04-1.27-.19-1.77-.49-.49-.33-.93-.72-1.2-1.39Z"/>
          <path class="cls-2" d="M129.49,319.62c.56-.09.9.08,1.2.3.28.25.5.56.52,1.12-.56.09-.9-.07-1.2-.3-.28-.25-.5-.56-.52-1.12Z"/>
          <path class="cls-2" d="M134.67,307.73c.42.66.52,1.32.53,1.98-.02.66-.11,1.32-.53,1.98-.42-.66-.52-1.32-.53-1.98.02-.66.11-1.32.53-1.98Z"/>
          <path class="cls-2" d="M139.03,319.91c.09.63-.13,1.11-.42,1.51-.32.38-.73.71-1.37.76.03-.64.25-1.04.53-1.42.3-.36.64-.67,1.26-.85Z"/>
          <path class="cls-2" d="M140.85,329.44c-.03.59-.27.95-.57,1.24-.32.27-.7.48-1.29.45.03-.6.27-.95.57-1.24.32-.27.7-.48,1.29-.45Z"/>
          <path class="cls-2" d="M142.07,335.63c-.35.85-.92,1.45-1.53,1.99-.63.51-1.32.97-2.22,1.17.35-.85.92-1.45,1.53-1.99.64-.51,1.32-.97,2.22-1.17Z"/>
          <path class="cls-2" d="M150.37,334.99c.68-.02,1.19.23,1.66.55.44.34.84.75,1.03,1.41-.71,0-1.21-.24-1.66-.55-.43-.34-.82-.73-1.03-1.41Z"/>
          <path class="cls-2" d="M152.14,328.84c.64-.05,1.08.16,1.48.43.38.3.71.66.85,1.29-.64.05-1.09-.16-1.48-.43-.38-.3-.71-.67-.85-1.29Z"/>
          <path class="cls-2" d="M155.66,320.96c.46-.14.7-.04.89.11.16.18.27.41.15.88-.47.14-.7.04-.89-.11-.16-.18-.27-.41-.15-.88Z"/>
          <path class="cls-2" d="M161.08,309.26c.4.64.48,1.27.47,1.89-.04.63-.15,1.25-.59,1.86-.4-.64-.48-1.27-.47-1.89.04-.63.15-1.25.59-1.86Z"/>
          <path class="cls-2" d="M163.53,320.66c-.01.56-.14.84-.32,1.12-.21.26-.44.47-.97.65-.26-.5-.13-.94.1-1.28.25-.32.63-.58,1.19-.49Z"/>
          <path class="cls-2" d="M165.13,328.55c-.09.63-.34,1.01-.64,1.36-.32.33-.68.61-1.31.75-.06-.64.2-1.1.52-1.47.35-.35.79-.64,1.43-.64Z"/>
          <path class="cls-2" d="M167.27,335.26c-.24.75-.66,1.24-1.14,1.66-.5.4-1.04.74-1.83.85.2-.73.65-1.23,1.14-1.66.51-.41,1.08-.77,1.83-.85Z"/>
          <path class="cls-2" d="M174.45,335.46c.62.12.98.43,1.28.79.27.38.49.81.44,1.44-.62-.11-.98-.43-1.28-.79-.27-.38-.49-.81-.44-1.44Z"/>
          <path class="cls-2" d="M176.17,329.66c.48.15.65.34.76.57.08.24.1.5-.13.94-.5-.03-.73-.27-.85-.54-.1-.28-.11-.6.22-.98Z"/>
          <path class="cls-2" d="M183.91,329.87c.08.59-.05.96-.23,1.32-.21.34-.45.65-1,.9-.25-.55-.14-1.02.06-1.42.23-.38.57-.73,1.16-.81Z"/>
          <path class="cls-2" d="M186.34,335.96c-.16.63-.47,1-.81,1.35-.37.32-.76.59-1.41.7,0-.66.31-1.12.69-1.48.4-.34.88-.61,1.53-.56Z"/>
          <path class="cls-2" d="M193.94,336.39c.7-.16,1.3.03,1.82.33.51.32.96.76,1.14,1.45-.71-.04-1.21-.27-1.69-.54-.47-.3-.9-.63-1.27-1.24Z"/>
          <path class="cls-2" d="M196.2,329.65c.58-.08.96.1,1.3.34.31.26.58.59.64,1.18-.58.08-.96-.1-1.3-.34-.31-.27-.58-.59-.64-1.18Z"/>
          <path class="cls-2" d="M198.41,322.36c.54,0,.82.22,1.04.47.2.28.33.6.2,1.13-.54,0-.82-.22-1.04-.47-.19-.28-.33-.6-.2-1.13Z"/>
          <path class="cls-2" d="M202.8,312.51c.39.42.48.78.51,1.16,0,.38-.08.75-.45,1.18-.46-.34-.59-.75-.61-1.16,0-.4.11-.82.56-1.18Z"/>
          <path class="cls-2" d="M206.55,324.69c.14.51-.05.87-.3,1.12-.28.23-.65.37-1.14.17.07-.53.23-.76.44-.97.23-.18.48-.31,1.01-.32Z"/>
          <path class="cls-2" d="M208.27,330.18c-.25.76-.69,1.25-1.17,1.68-.51.41-1.07.75-1.86.87.22-.73.67-1.24,1.18-1.68.52-.42,1.1-.78,1.86-.87Z"/>
          <path class="cls-2" d="M209.09,336.78c-.15.54-.48.8-.83.99-.37.16-.79.26-1.3.03.2-.56.5-.81.83-.99.35-.15.73-.23,1.3-.03Z"/>
        </g>
      </g>
      <g>
        <g>
          <path class="cls-3" d="M711.65,297.79h7.02c-1.64-4.92-4.06-15.3-6.06-20.08-2.23,4.17-4.45,8.34-6.68,12.51-1.92-4.86-3.84-9.71-5.77-14.57-2.41,4.13-4.83,8.26-7.24,12.38-2.98-6.93-5.97-13.86-8.95-20.79-4.83,6.72-9.09,13.88-12.7,21.37-3.18-7.35-6.37-14.69-9.55-22.04-3.49,7.56-6.98,15.11-10.47,22.67-3.73-10.89-7.45-21.78-11.18-32.66-5.33,11.03-10.67,22.06-16,33.09-2.84-8.27-5.67-16.54-8.51-24.81-3.33,8.43-6.67,16.86-10,25.3-3.09-7.87-6.17-15.73-9.26-23.6-4.24,8.84-5.05,10.96-8.64,20.1l-.94,2.44c-1.89-3.07-3.77-6.14-5.66-9.21-1.41,3.09-2.82,6.18-4.22,9.26-.9-3.55-2.14-7-3.7-10.3-2.5,4.57-7.66,14.22-10.16,18.79h6.53c1.1-3.43,2.05-6.93,2.81-10.5.12,3.48.07,6.99-.14,10.51h7.4c.72-3.54,1.29-7.14,1.66-10.78.53,3.56.87,7.16,1.05,10.79h12.28c1.02-6.87,1.69-13.84,1.93-20.84.69,6.9.98,13.87.9,20.86h15.88c.99-6.38,1.66-12.84,1.99-19.34.59,6.41.83,12.88.76,19.36l20.29.02,2.11-24.61.71,24.61,21.18.02c.67-6.48,1.13-13,1.36-19.54.7,6.48,1.17,13,1.43,19.54l17.63.02,1.87-19.42.85,19.42h14.46s1.29-13.78,1.29-13.78l1.45,13.79h8.23s1.79-9.8,1.79-9.8l.99,9.81Z"/>
          <path class="cls-2" d="M572.32,287.16c-.76,3.57-1.71,7.07-2.81,10.5h2.67c.21-3.51.26-7.02.14-10.5Z"/>
          <path class="cls-2" d="M579.58,297.68h2.7c-.18-3.63-.52-7.23-1.05-10.79-.37,3.64-.93,7.24-1.66,10.79Z"/>
          <path class="cls-2" d="M596.49,276.83c-.24,7.01-.9,13.97-1.93,20.85h2.82c.08-6.99-.2-13.95-.9-20.85Z"/>
          <path class="cls-2" d="M615.25,278.35c-.32,6.51-1,12.97-1.99,19.36h2.75c.07-6.48-.17-12.95-.76-19.36Z"/>
          <polygon class="cls-2" points="636.31 297.73 639.12 297.73 638.41 273.12 636.31 297.73"/>
          <path class="cls-2" d="M660.31,297.75h2.79c-.26-6.54-.73-13.06-1.43-19.54-.23,6.54-.69,13.06-1.36,19.54Z"/>
          <polygon class="cls-2" points="680.72 297.77 683.44 297.77 682.59 278.35 680.72 297.77"/>
          <polygon class="cls-2" points="697.9 297.78 700.64 297.78 699.19 283.99 697.9 297.78"/>
          <polygon class="cls-2" points="710.66 287.99 708.87 297.79 711.65 297.79 710.66 287.99"/>
        </g>
        <g>
          <path class="cls-2" d="M589.06,292.51c.64-.13,1.1,0,1.55.17.44.21.84.47,1.17,1.04-.61.24-1.13.13-1.6-.06-.46-.22-.89-.54-1.12-1.15Z"/>
          <path class="cls-2" d="M590.08,287.43c.72-.11,1.28.03,1.82.23.53.23,1.04.5,1.49,1.07-.69.24-1.31.13-1.88-.08-.56-.24-1.09-.58-1.43-1.22Z"/>
          <path class="cls-2" d="M591.86,282.07c.48-.21.79-.13,1.07,0,.26.17.48.41.53.93-.48.21-.79.14-1.07,0-.26-.17-.48-.41-.53-.93Z"/>
          <path class="cls-2" d="M593.31,276.76c.48-.16.82-.03,1.1.15.26.21.48.5.46,1.01-.54.12-.84.02-1.1-.15-.24-.2-.42-.46-.46-1.01Z"/>
          <path class="cls-2" d="M596.46,271.82c.38.43.45.79.47,1.17-.02.37-.1.74-.49,1.16-.46-.35-.57-.76-.58-1.17.02-.4.14-.81.6-1.16Z"/>
          <path class="cls-2" d="M599.64,279.26c.29.44.25.8.12,1.1-.16.29-.42.55-.95.58-.18-.49-.13-.78,0-1.05.15-.26.34-.47.84-.63Z"/>
          <path class="cls-2" d="M602.26,285.87c-.12.66-.19,1.07-.44,1.57-.13.24-.28.48-.51.69-.22.21-.51.39-.87.4.1-.66.18-1.07.42-1.58.13-.24.28-.49.52-.69.22-.21.52-.39.87-.39Z"/>
          <path class="cls-2" d="M602.72,291.52c-.05.68-.36,1.16-.72,1.58-.38.4-.83.74-1.51.86.06-.7.36-1.16.72-1.58.38-.39.82-.73,1.51-.86Z"/>
          <path class="cls-2" d="M608.3,291.63c.58-.02.91.14,1.22.35.29.23.54.5.7,1.06-.55.19-.98.03-1.33-.2-.33-.26-.6-.62-.59-1.21Z"/>
          <path class="cls-2" d="M609.56,287.37c.55-.16.93-.04,1.27.15.32.21.61.5.72,1.06-.55.16-.93.04-1.27-.15-.32-.22-.61-.5-.72-1.06Z"/>
          <path class="cls-2" d="M611.08,281.4c.55-.02.84.14,1.11.34.24.23.44.5.49,1.05-.53.15-.9-.01-1.19-.25-.27-.26-.48-.6-.41-1.15Z"/>
          <path class="cls-2" d="M614.81,271.49c.44.4.56.76.6,1.13,0,.38-.07.75-.47,1.19-.44-.33-.56-.74-.6-1.13,0-.4.07-.81.47-1.19Z"/>
          <path class="cls-2" d="M618.84,281.08c.18.51.08.85-.09,1.15-.19.28-.45.52-.99.59-.18-.51-.08-.85.09-1.15.19-.28.45-.52.99-.59Z"/>
          <path class="cls-2" d="M620.86,286.45c-.04.71-.31,1.18-.64,1.61-.36.41-.77.76-1.46.93.01-.67.3-1.17.64-1.61.37-.42.8-.79,1.46-.93Z"/>
          <path class="cls-2" d="M621.26,292.77c-.02.67-.36,1.15-.77,1.51-.43.34-.96.59-1.62.49.24-.63.57-.98.94-1.31.39-.3.79-.57,1.45-.69Z"/>
          <path class="cls-2" d="M628.31,291.84c.72-.02,1.24.19,1.76.44.5.28.96.59,1.36,1.19-.7.19-1.31.02-1.85-.25-.53-.3-1.01-.7-1.26-1.38Z"/>
          <path class="cls-2" d="M629.44,286.86c.76.03,1.32.28,1.86.58.52.33,1.01.7,1.4,1.35-.75.11-1.38-.11-1.95-.43-.55-.34-1.05-.79-1.32-1.5Z"/>
          <path class="cls-2" d="M631.84,280.86c.71-.03,1.24.21,1.73.52.47.33.89.73,1.14,1.4-.71.03-1.24-.21-1.73-.52-.47-.33-.89-.73-1.14-1.4Z"/>
          <path class="cls-2" d="M634.29,272.7c.57-.05.93.13,1.23.38.28.27.51.6.53,1.18-.57.06-.93-.13-1.23-.38-.28-.27-.51-.6-.53-1.18Z"/>
          <path class="cls-2" d="M639.36,265.03c.43.54.53,1.04.56,1.56,0,.51-.09,1.02-.51,1.57-.43-.49-.53-1.03-.56-1.56,0-.53.1-1.06.51-1.57Z"/>
          <path class="cls-2" d="M643.21,273.42c.03.56-.12.87-.31,1.16-.22.27-.48.5-1.03.63-.2-.53-.05-.94.17-1.27.25-.31.6-.56,1.17-.52Z"/>
          <path class="cls-2" d="M644.15,280.07c-.18.7-.51,1.15-.87,1.59-.39.42-.79.8-1.47,1.06-.04-.73.27-1.3.67-1.77.42-.45.94-.83,1.67-.88Z"/>
          <path class="cls-2" d="M645.49,287.07c-.34.85-.89,1.46-1.5,2.01-.63.52-1.3.99-2.2,1.21.34-.86.89-1.46,1.5-2.01.63-.52,1.3-.99,2.2-1.21Z"/>
          <path class="cls-2" d="M645.07,292.83c-.16.64-.48.98-.85,1.27-.39.26-.82.45-1.47.4.12-.6.46-.97.85-1.27.41-.27.86-.48,1.47-.4Z"/>
          <path class="cls-2" d="M653.91,292.58c.62-.1,1.06.08,1.46.32.38.27.71.6.87,1.21-.62.1-1.06-.08-1.46-.32-.38-.27-.71-.61-.87-1.21Z"/>
          <path class="cls-2" d="M655.73,286.9c.53-.18.93-.07,1.29.11.34.21.64.49.76,1.04-.56.17-.94.06-1.29-.11-.33-.21-.61-.48-.76-1.04Z"/>
          <path class="cls-2" d="M657.77,280.21c.51-.08.75.01.98.16.21.17.36.39.42.9-.46.24-.8.13-1.07-.05-.24-.21-.44-.51-.34-1.01Z"/>
          <path class="cls-2" d="M661.23,271.88c.41.45.52.87.57,1.29.02.43-.03.86-.37,1.37-.49-.37-.64-.83-.7-1.28-.02-.46.06-.94.49-1.38Z"/>
          <path class="cls-2" d="M665.43,280.47c.1.49.04.72-.07.93-.14.2-.32.34-.81.46-.31-.4-.25-.76-.1-1.03.18-.26.48-.47.97-.36Z"/>
          <path class="cls-2" d="M667.49,286.58c.17.48.07.75-.08.98-.18.21-.42.37-.93.34-.17-.48-.07-.75.08-.98.18-.21.43-.37.93-.34Z"/>
          <path class="cls-2" d="M669.81,292.36c0,.54-.19.84-.44,1.08-.27.21-.6.37-1.14.27-.01-.55.19-.84.44-1.08.27-.21.6-.36,1.14-.27Z"/>
          <path class="cls-2" d="M674.22,291.35c.59-.13,1.03.03,1.43.26.38.26.73.58.87,1.17-.62.11-1.05-.04-1.43-.26-.37-.25-.69-.56-.87-1.17Z"/>
          <path class="cls-2" d="M676.61,285.04c.62,0,1,.19,1.37.41.35.25.66.54.89,1.11-.59.19-1.08.03-1.49-.23-.39-.28-.72-.67-.77-1.3Z"/>
          <path class="cls-2" d="M678.74,279.65c.43-.22.67-.17.88-.05.19.14.33.35.29.83-.43.22-.68.17-.88.05-.18-.14-.33-.35-.29-.83Z"/>
          <path class="cls-2" d="M682.45,272.42c.49.43.65.9.74,1.39.05.49.03.99-.32,1.54-.49-.43-.65-.9-.74-1.39-.05-.49-.03-.99.32-1.54Z"/>
          <path class="cls-2" d="M686.53,279.62c.04.47.02.64-.08.78-.12.13-.27.19-.74.26-.33-.36-.26-.69-.1-.92.18-.21.49-.35.92-.12Z"/>
          <path class="cls-2" d="M688.42,284.11c.05.67-.13,1.14-.36,1.59-.26.44-.57.84-1.17,1.14-.17-.65,0-1.18.24-1.66.28-.46.65-.87,1.29-1.07Z"/>
          <path class="cls-2" d="M690.81,291.22c-.17.73-.56,1.21-1,1.64-.23.2-.44.37-.67.53-.22.17-.45.31-.72.57-.17-.35-.09-.76.06-1.08.15-.33.38-.59.6-.81.47-.41.98-.75,1.72-.86Z"/>
          <path class="cls-2" d="M693.97,291.96c.58.06.89.25,1.18.49.27.26.49.55.6,1.12-.57.14-.99-.05-1.32-.33-.31-.3-.55-.7-.46-1.28Z"/>
          <path class="cls-2" d="M695.82,287.45c.51-.14.83.02,1.08.25.23.24.39.57.26,1.08-.53.02-.78-.12-1.01-.32-.2-.22-.35-.48-.33-1Z"/>
          <path class="cls-2" d="M702.62,288.19c.21.4.18.58.09.71-.12.11-.29.16-.71,0-.21-.4-.18-.58-.09-.71.12-.11.29-.16.71,0Z"/>
          <path class="cls-2" d="M704.52,292.89c.09.6-.14,1.04-.46,1.39-.33.32-.77.58-1.38.5.1-.6.33-.93.61-1.24.3-.29.63-.53,1.22-.65Z"/>
          <path class="cls-2" d="M714.12,291.11c.13.49.04.74-.1.94-.17.18-.4.3-.91.24-.17-.45-.06-.72.1-.94.19-.2.45-.34.91-.24Z"/>
          <path class="cls-2" d="M715.05,294.3c.05.54-.11.83-.33,1.07-.24.22-.53.37-1.08.32-.07-.52.1-.83.33-1.07.25-.22.56-.39,1.08-.32Z"/>
          <path class="cls-2" d="M706.99,292.25c.56-.01.88.2,1.14.46.24.28.42.62.36,1.18-.56.01-.88-.19-1.14-.46-.24-.28-.42-.62-.36-1.18Z"/>
          <path class="cls-2" d="M575.69,294.91c.53-.23.93-.16,1.31-.02.36.17.69.41.89.96-.53.23-.93.17-1.31.02-.36-.17-.69-.41-.89-.96Z"/>
          <path class="cls-2" d="M577.95,290.53c.55-.18.92-.09,1.26.08.32.19.61.46.75,1.02-.53.2-.91.09-1.26-.08-.33-.2-.63-.47-.75-1.02Z"/>
          <path class="cls-2" d="M585.56,291.52c.03.49-.12.72-.32.89-.22.14-.49.22-.95.03-.04-.5.12-.73.32-.89.22-.14.49-.22.95-.03Z"/>
          <path class="cls-2" d="M586.75,294.91c.02.48-.16.67-.37.79-.22.08-.49.08-.83-.26.08-.47.22-.62.4-.72.19-.07.4-.07.8.19Z"/>
          <path class="cls-2" d="M566.18,294.32c.61-.19,1.08-.09,1.52.09.43.21.83.49,1.09,1.07-.61.19-1.08.09-1.52-.09-.43-.21-.83-.49-1.09-1.07Z"/>
          <path class="cls-2" d="M568.86,289.63c.51-.22.87-.15,1.2,0,.31.17.59.42.72.95-.51.22-.87.15-1.2,0-.31-.17-.59-.42-.72-.95Z"/>
          <path class="cls-2" d="M575.23,289.91c.16.45.06.7-.09.9-.18.18-.42.3-.88.18-.14-.48-.05-.71.09-.9.17-.16.4-.27.88-.18Z"/>
          <path class="cls-2" d="M572.51,283.52c.35.41.41.71.41,1.03-.04.31-.13.61-.54.97-.44-.31-.54-.68-.53-1.04.04-.35.18-.71.66-.96Z"/>
        </g>
      </g>
      <path class="cls-3" d="M277.28,340.04c14.7-8.83,29.67-17.16,44.68-25.38l11.29-6.12,11.34-6.03c3.79-2.03,7.68-3.97,11.73-5.67,4.04-1.72,8.29-3.08,12.71-3.88,2.21-.39,4.45-.64,6.71-.66,1.13-.05,2.25.08,3.37.11.56.03,1.12.04,1.68.1l1.66.25c2.23.26,4.38.86,6.52,1.43l3.14,1.06c1.04.36,2.04.83,3.05,1.24,4.01,1.77,7.83,3.88,11.45,6.23,3.64,2.32,7.17,4.78,10.66,7.28,3.5,2.47,6.95,5.01,10.48,7.4,1.78,1.18,3.54,2.38,5.35,3.49,1.8,1.13,3.59,2.35,5.44,2.77,1.82.46,3.68-.2,5.48-1.19,1.8-1.02,3.67-2.17,5.5-3.24l11.05-6.55,5.51-3.3c1.86-1.08,3.6-2.23,5.68-3.28,1.04-.51,2.15-.97,3.38-1.28,1.22-.3,2.57-.42,3.87-.26,2.61.32,4.79,1.46,6.72,2.52,7.48,4.27,14.82,8.59,22.21,12.94l11.07,6.51c3.69,2.17,7.28,4.29,10.99,5.76,3.68,1.46,7.59,2.26,11.68,2.64,4.08.4,8.29.38,12.58.45,17.12.28,34.23.61,51.35,1.19,17.12.54,34.23,1.27,51.34,2.28v.53c-17.13.72-34.25,1.14-51.38,1.38-17.12.28-34.24.31-51.36.29-4.27-.02-8.63-.04-13.08-.48-2.22-.22-4.46-.55-6.69-1.04-2.22-.5-4.45-1.23-6.55-2.12-4.22-1.78-7.97-4.13-11.61-6.37l-10.93-6.74c-7.28-4.48-14.59-9.01-21.79-13.55-1.75-1.08-3.45-1.99-5.1-2.26-1.61-.3-3.36.09-5.17.88-1.79.78-3.71,1.87-5.6,2.84l-5.69,2.98-11.35,6.01c-1.91,1-3.75,2-5.71,3-.99.5-2.05.96-3.22,1.22-1.15.27-2.45.27-3.61-.04-1.17-.3-2.2-.82-3.16-1.38-.96-.56-1.84-1.15-2.75-1.73-1.82-1.15-3.59-2.37-5.37-3.57l-10.55-7.33c-3.53-2.4-7.12-4.7-10.8-6.82-3.69-2.09-7.51-3.9-11.43-5.35-.99-.33-1.96-.73-2.96-1l-3-.81c-2.03-.39-4.04-.82-6.09-.92l-1.52-.14c-.51-.03-1.02,0-1.53,0-1.02.03-2.04-.04-3.05.06-2.02.11-4.03.49-6.02.89-8,1.75-15.53,5.53-23.11,9.39l-11.42,5.86-11.47,5.77c-15.33,7.63-30.71,15.16-46.35,22.19l-.25-.47Z"/>
      <path class="cls-3" d="M521.67,331.11c2.31-3.21,4.94-6.2,7.82-8.91,1.36,4.61,3.2,9.07,5.47,13.31.6-3.54,1.62-7.02,3.03-10.33,1.82,3.73,3.63,7.45,5.45,11.18l7.02-14.45c.79,4.98,2,9.9,3.61,14.67,2.02-4.12,4.04-8.23,6.06-12.35,1.95,4.36,3.66,8.83,5.12,13.39,2.16-3.18,4.31-6.36,6.47-9.54,1.55,3.4,3.11,6.8,4.66,10.2,2.15-3.2,4.31-6.39,6.46-9.59,1.29,2.53,2.58,5.05,3.87,7.58,1.58-2.2,3.16-4.41,4.75-6.61l3.67,6.76c2.01-2.08,4.02-4.16,6.02-6.24,1.73,2.49,3.46,4.98,5.19,7.48-26.19,1.51-52.92,2.97-78.25-3.86l-6.43-2.69Z"/>
      <polygon class="cls-3" points="353.63 279.11 398.83 238.89 399.4 238.38 400 238.89 436.5 269.31 434.42 271.74 398.83 240.25 400.01 240.25 353.63 279.11"/>
      <g>
        <path class="cls-3" d="M599.33,308.49c2.43-.12,4.86-.17,7.29-.26l7.29-.15c4.86-.09,9.72-.08,14.58-.12,4.86.04,9.72.04,14.58.12l7.29.15c2.43.09,4.86.14,7.29.26-2.43.12-4.86.17-7.29.26l-7.29.15c-4.86.08-9.72.08-14.58.12-4.86-.04-9.72-.04-14.58-.12l-7.29-.15c-2.43-.09-4.86-.14-7.29-.26Z"/>
        <path class="cls-3" d="M685.8,305.1c3.05-.42,6.1-.52,9.16-.53,3.05.01,6.1.11,9.16.53-3.05.42-6.1.52-9.16.53-3.05-.02-6.1-.11-9.16-.53Z"/>
        <path class="cls-3" d="M645.11,301.71c3.16-.42,6.33-.52,9.49-.53,3.16.02,6.33.11,9.49.53-3.16.42-6.33.52-9.49.53-3.16-.02-6.33-.11-9.49-.53Z"/>
        <path class="cls-3" d="M519.31,305.1c1.47-.12,2.94-.17,4.41-.26l4.41-.15c2.94-.1,5.88-.11,8.82-.12,2.94.01,5.88.03,8.82.12l4.41.15c1.47.09,2.94.14,4.41.26-1.47.12-2.94.17-4.41.26l-4.41.15c-2.94.1-5.88.11-8.82.12-2.94-.01-5.88-.03-8.82-.12l-4.41-.15c-1.47-.09-2.94-.14-4.41-.26Z"/>
        <path class="cls-3" d="M553.22,315.61c1.53-.12,3.05-.17,4.58-.26l4.58-.15c3.05-.1,6.1-.11,9.16-.12,3.05.01,6.1.03,9.16.12l4.58.15c1.53.09,3.05.14,4.58.26-1.53.12-3.05.17-4.58.26l-4.58.15c-3.05.1-6.1.11-9.16.12-3.05-.01-6.1-.03-9.16-.12l-4.58-.15c-1.53-.09-3.05-.14-4.58-.26Z"/>
        <path class="cls-3" d="M515.58,315.27c4.07-.42,8.14-.52,12.21-.53,4.07.01,8.14.11,12.21.53-4.07.42-8.14.52-12.21.53-4.07-.02-8.14-.11-12.21-.53Z"/>
        <path class="cls-3" d="M607.47,324.77c3.05-.42,6.1-.52,9.16-.53,3.05.01,6.1.11,9.16.53-3.05.42-6.1.52-9.16.53-3.05-.02-6.1-.11-9.16-.53Z"/>
        <path class="cls-3" d="M639.35,318.32c1.5-.12,3-.17,4.49-.26l4.49-.15c3-.1,5.99-.11,8.99-.12,3,.01,5.99.03,8.99.12l4.49.15c1.5.09,3,.14,4.49.26-1.5.12-3,.17-4.49.26l-4.49.15c-3,.1-5.99.11-8.99.12-3-.01-5.99-.03-8.99-.12l-4.49-.15c-1.5-.09-3-.14-4.49-.26Z"/>
        <path class="cls-3" d="M684.45,320.02c3.05-.42,6.1-.52,9.16-.53,3.05.01,6.1.11,9.16.53-3.05.42-6.1.52-9.16.53-3.05-.02-6.1-.11-9.16-.53Z"/>
        <path class="cls-3" d="M641.04,330.87c3.5-.42,7.01-.52,10.51-.53,3.5.01,7.01.11,10.51.53-3.5.42-7.01.52-10.51.53-3.5-.02-7.01-.11-10.51-.53Z"/>
        <path class="cls-3" d="M570.85,306.79c1.7-.42,3.39-.52,5.09-.53,1.7.02,3.39.11,5.09.53-1.7.42-3.39.52-5.09.53-1.7-.02-3.39-.11-5.09-.53Z"/>
        <path class="cls-3" d="M490.49,304.42c2.37-.42,4.75-.52,7.12-.53,2.37.02,4.75.11,7.12.53-2.37.42-4.75.52-7.12.53-2.37-.02-4.75-.11-7.12-.53Z"/>
      </g>
      <g>
        <path class="cls-3" d="M223.28,333.92c2.94-.42,5.88-.52,8.82-.53,2.94.02,5.88.11,8.82.53-2.94.42-5.88.52-8.82.53-2.94-.02-5.88-.11-8.82-.53Z"/>
        <path class="cls-3" d="M249.05,331.21c2.94-.42,5.88-.52,8.82-.53,2.94.02,5.88.11,8.82.53-2.94.42-5.88.52-8.82.53-2.94-.02-5.88-.11-8.82-.53Z"/>
        <path class="cls-3" d="M253.12,339.69c2.6-.42,5.2-.52,7.8-.53,2.6.02,5.2.11,7.8.53-2.6.42-5.2.52-7.8.53-2.6-.02-5.2-.11-7.8-.53Z"/>
        <path class="cls-3" d="M269.24,323.99c5.08-.42,10.17-.52,15.25-.53,5.08.02,10.17.11,15.25.53-5.08.42-10.17.52-15.25.53-5.08-.02-10.17-.11-15.25-.53Z"/>
        <path class="cls-3" d="M245.12,322.57c1.54-.42,3.07-.52,4.61-.53,1.54.02,3.07.11,4.61.53-1.54.42-3.07.52-4.61.53-1.54-.02-3.07-.11-4.61-.53Z"/>
        <path class="cls-3" d="M274.91,331.44c1.18-.42,2.36-.52,3.55-.53,1.18.02,2.36.11,3.55.53-1.18.42-2.36.52-3.55.53-1.18-.02-2.36-.11-3.55-.53Z"/>
      </g>
    </g>
  </g>
</svg>