<?xml version="1.0" encoding="UTF-8"?>
<svg id="Layer_2" data-name="Layer 2" xmlns="http://www.w3.org/2000/svg" viewBox="0 0 687.84 51.91">
  <defs>
    <style>
      .cls-1 {
        fill: #6391A1;
        stroke: #000;
        stroke-miterlimit: 10;
        stroke-width: .5px;
      }
    </style>
  </defs>
  <g id="Layer_1-2" data-name="Layer 1">
    <path class="cls-1" d="M1.19,49.31h0s9.53-3.06,9.53-3.06l11.91-2.04,7.49-2.04,3.74-5.11,11.57-4.09,20.09-4.43,16.68-2.72,16-2.04,13.96-2.72,14.98-2.38,10.58-5.71c.71-.39,1.5-.61,2.31-.66l12.98-.78h14.3l10.55-3.74,7.49-3.06,6.81-2.72S201.36-.05,213.61.29l12.26.34,17.02,1.7,14.98,2.72,12.51,1.62,8.68,3.32,14.3.77,19.66,1.53h10.47l11.74-.26,12.51-.26,8.94-1.02,8.17-2.55,7.66-.51,11.23-.51,8.43-.26,9.7,1.02,5.11.26,8.43,1.53,6.38,1.28,6.55,2.5c.95.36,1.86.84,2.6,1.53.81.76,3.01,1.83,8.98,1.83h19.4l8.43-1.53h9.45l7.15-.26,5.36-2.55,7.66-1.53,10.72-.77,13.79-1.28,12.51.26,12.26,1.53,8.94,1.28,10.72.77,10.72-.26h10.98l5.6.72c1.16.15,2.34.22,3.51.15,1.1-.06,3.05-.03,6.21.4,5.62.77,11.74,2.55,11.74,2.55l5.17,1.79c.59.21,1.24.31,1.85.16.71-.18,2.74.18,8.55,3.66l8.94,5.36,7.15,4.6,10.98,5.87,10.98,3.83,9.68,4.94s15.7,3.26,6.15,3.23h0L1.44,51.66c-1.43,0-1.65-2.05-.26-2.35Z"/>
  </g>
</svg>